<svg id="Layer_1" data-name="Layer 1" xmlns="http://www.w3.org/2000/svg" viewBox="0 0 945.91 630.1"><defs><style>.cls-1{fill:#fdce04;}.cls-2{fill:#32d4f2;}.cls-3{fill:#e93a5a;}</style></defs><path class="cls-1" d="M698.1,843h-349q0-311.52-.14-623c0-5.66,1.28-6.94,6.94-6.94q406.74.24,813.49.14c.34,2.65-1.8,4-3.09,5.76Q1081.1,332.84,995.71,446.68c-31.86,42.44-64,84.7-95.94,127.07-1.62,2.15-4,4-3.78,7.13a63.46,63.46,0,0,0-4.53,4.91q-40.58,53.81-81.08,107.67-30.86,41-61.76,81.88C731.71,797.84,714.94,820.44,698.1,843Z" transform="translate(-349 -213)"/><path class="cls-2" d="M896,580.88c-.18-3.14,2.16-5,3.78-7.13,32-42.37,64.08-84.63,95.94-127.07q85.45-113.79,170.63-227.78c1.29-1.72,3.43-3.11,3.09-5.76,40.28,0,80.57.06,120.85-.1,3.78,0,4.63.86,4.63,4.63q-.17,310.4,0,620.79c0,3.78-.85,4.69-4.63,4.64-16.11-.24-32.23-.11-48.34-.11-10-9.75-21.55-17.52-32.63-25.9q-84.58-64-169.24-127.94-51.45-38.91-102.93-77.78C923.51,601.09,909.71,591,896,580.88Z" transform="translate(-349 -213)"/><path class="cls-3" d="M896,580.88c13.72,10.16,27.52,20.21,41.15,30.49q51.52,38.8,102.93,77.78,84.63,64,169.24,127.94c11.08,8.38,22.64,16.15,32.63,25.9H698.1c16.84-22.55,33.61-45.15,50.52-67.65q30.79-41,61.76-81.88,40.56-53.82,81.08-107.67A63.46,63.46,0,0,1,896,580.88Z" transform="translate(-349 -213)"/></svg>